<?xml version="1.0" encoding="utf-8"?>
<!-- Generator: Adobe Illustrator 15.0.2, SVG Export Plug-In . SVG Version: 6.00 Build 0)  -->
<!DOCTYPE svg PUBLIC "-//W3C//DTD SVG 1.1//EN" "http://www.w3.org/Graphics/SVG/1.1/DTD/svg11.dtd">
<svg version="1.1" id="Layer_1" xmlns="http://www.w3.org/2000/svg" xmlns:xlink="http://www.w3.org/1999/xlink" x="0px" y="0px"
	 width="768px" height="1024px" viewBox="0 0 768 1024" enable-background="new 0 0 768 1024" xml:space="preserve">
<rect id="wall" y="-639.5" fill="#C8C8C8" width="768.5" height="1663.5"/>
<circle id="grab_1_" fill="#3C7CE6" stroke="#000000" stroke-miterlimit="10" cx="384.5" cy="800.5" r="32"/>
<circle id="star_3_" fill="#F8C741" cx="96.5" cy="288.5" r="32"/>
<circle id="grab_2_" fill="#3C7CE6" stroke="#000000" stroke-miterlimit="10" cx="208.5" cy="736.5" r="32"/>
<circle id="grab_3_" fill="#3C7CE6" stroke="#000000" stroke-miterlimit="10" cx="544.5" cy="736.5" r="32"/>
<circle id="star_1_" fill="#F8C741" cx="384.5" cy="544.5" r="32"/>
<circle id="star_2_" fill="#F8C741" cx="672.5" cy="288.5" r="32"/>
<circle id="grab_4_" fill="#3C7CE6" stroke="#000000" stroke-miterlimit="10" cx="672.5" cy="544.5" r="32"/>
<circle id="grab_5_" fill="#3C7CE6" stroke="#000000" stroke-miterlimit="10" cx="480.5" cy="352.5" r="32"/>
<circle id="grab_6_" fill="#3C7CE6" stroke="#000000" stroke-miterlimit="10" cx="96.5" cy="544.5" r="32"/>
<circle id="grab_7_" fill="#3C7CE6" stroke="#000000" stroke-miterlimit="10" cx="288.5" cy="160.5" r="32"/>
<circle id="grab_8_" fill="#3C7CE6" stroke="#000000" stroke-miterlimit="10" cx="288.5" cy="352.5" r="32"/>
<circle id="grab_9_" fill="#3C7CE6" stroke="#000000" stroke-miterlimit="10" cx="94.5" cy="-32" r="32"/>
<circle id="grab_10_" fill="#3C7CE6" stroke="#000000" stroke-miterlimit="10" cx="480.5" cy="160.5" r="32"/>
<circle id="grab_11_" fill="#3C7CE6" stroke="#000000" stroke-miterlimit="10" cx="224.5" cy="-223.5" r="32"/>
<circle id="grab_12_" fill="#3C7CE6" stroke="#000000" stroke-miterlimit="10" cx="676.5" cy="-32" r="32"/>
<circle id="grab_13_" fill="#3C7CE6" stroke="#000000" stroke-miterlimit="10" cx="384.5" cy="-351.5" r="32"/>
<circle id="grab_14_" fill="#3C7CE6" stroke="#000000" stroke-miterlimit="10" cx="544.5" cy="-223.5" r="32"/>
<circle id="star_4_" fill="#F8C741" cx="96.5" cy="-287.5" r="32"/>
<circle id="star_5_" fill="#F8C741" cx="384.5" cy="-31.5" r="32"/>
<circle id="star_6_" fill="#F8C741" cx="672.5" cy="-287.5" r="32"/>
<circle id="grab_15_" fill="#3C7CE6" stroke="#000000" stroke-miterlimit="10" cx="224.5" cy="-479.5" r="32"/>
<circle id="grab_16_" fill="#3C7CE6" stroke="#000000" stroke-miterlimit="10" cx="544.5" cy="-479.5" r="32"/>
<circle id="star_7_" fill="#F8C741" cx="384.5" cy="-543.5" r="32"/>
</svg>
