<?xml version="1.0" encoding="utf-8"?>
<!-- Generator: Adobe Illustrator 15.0.2, SVG Export Plug-In . SVG Version: 6.00 Build 0)  -->
<!DOCTYPE svg PUBLIC "-//W3C//DTD SVG 1.1//EN" "http://www.w3.org/Graphics/SVG/1.1/DTD/svg11.dtd">
<svg version="1.1" id="Layer_1" xmlns="http://www.w3.org/2000/svg" xmlns:xlink="http://www.w3.org/1999/xlink" x="0px" y="0px"
	 width="768px" height="1024px" viewBox="0 0 768 1024" enable-background="new 0 0 768 1024" xml:space="preserve">
<g id="wall_1_">
	<rect id="wall" y="-575.5" opacity="0.5" fill="#C8C8C8" enable-background="new    " width="768.5" height="1599.5"/>
</g>
<circle id="star_1_" fill="#F8C741" cx="384" cy="608" r="32"/>
<circle id="grab_2_" fill="#3C7CE6" cx="384" cy="800" r="32"/>
<circle id="grab_1_" fill="#3C7CE6" cx="224.5" cy="672.5" r="32"/>
<circle id="grab_3_" fill="#3C7CE6" cx="544" cy="672" r="32"/>
<circle id="grab_4_" fill="#3C7CE6" cx="672.5" cy="480.5" r="32"/>
<circle id="grab_5_" fill="#3C7CE6" cx="96.5" cy="480.5" r="32"/>
<circle id="star_2_" fill="#F8C741" cx="288.5" cy="736.5" r="32"/>
<circle id="star_3_" fill="#F8C741" cx="128.5" cy="576.5" r="32"/>
<circle id="star_4_" fill="#F8C741" cx="640" cy="576" r="32"/>
<circle id="star_5_" fill="#F8C741" cx="480.5" cy="736.5" r="32"/>
<circle id="star_6_" fill="#F8C741" cx="384.5" cy="-287.5" r="32"/>
<circle id="star_7_" fill="#F8C741" cx="384.5" cy="96.5" r="32"/>
<circle id="grab_6_" fill="#3C7CE6" cx="256" cy="384" r="32"/>
<circle id="grab_7_" fill="#3C7CE6" cx="528" cy="384" r="32"/>
<circle id="grab_8_" fill="#3C7CE6" cx="384" cy="512" r="32"/>
<circle id="grab_9_" fill="#3C7CE6" cx="384" cy="192" r="32"/>
<circle id="grab_10_" fill="#3C7CE6" cx="704" cy="-64" r="32"/>
<circle id="grab_11_" fill="#3C7CE6" cx="64" cy="-64" r="32"/>
<circle id="grab_12_" fill="#3C7CE6" cx="192" cy="64" r="32"/>
<circle id="grab_13_" fill="#3C7CE6" cx="576" cy="64" r="32"/>
<circle id="star_8_" fill="#F8C741" cx="704.5" cy="-159.5" r="32"/>
<circle id="star_9_" fill="#F8C741" cx="64.5" cy="-159.5" r="32"/>
<circle id="grab_14_" fill="#3C7CE6" cx="128" cy="-320" r="32"/>
<circle id="grab_15_" fill="#3C7CE6" cx="640" cy="-320" r="32"/>
<circle id="grab_16_" fill="#3C7CE6" cx="384" cy="-448" r="32"/>
<circle id="grab_17_" fill="#3C7CE6" cx="384" cy="-192" r="32"/>
</svg>
