<?xml version="1.0" encoding="utf-8"?>
<!-- Generator: Adobe Illustrator 15.0.2, SVG Export Plug-In . SVG Version: 6.00 Build 0)  -->
<!DOCTYPE svg PUBLIC "-//W3C//DTD SVG 1.1//EN" "http://www.w3.org/Graphics/SVG/1.1/DTD/svg11.dtd">
<svg version="1.1" id="Layer_1" xmlns="http://www.w3.org/2000/svg" xmlns:xlink="http://www.w3.org/1999/xlink" x="0px" y="0px"
	 width="768px" height="1024px" viewBox="0 0 768 1024" enable-background="new 0 0 768 1024" xml:space="preserve">
<g id="static">
	<rect id="wall" y="-1536" fill="#C8C8C8" width="768" height="2560"/>
</g>
<g id="objects">
	<circle id="grab_4_" fill="#A85FFF" stroke="#000000" stroke-miterlimit="10" cx="336" cy="768" r="32"/>
	<circle id="grab_3_" fill="#A85FFF" stroke="#000000" stroke-miterlimit="10" cx="320" cy="576" r="32"/>
	<circle id="grab_2_" fill="#A85FFF" stroke="#000000" stroke-miterlimit="10" cx="384" cy="384" r="32"/>
	<circle id="grab_1_" fill="#A85FFF" stroke="#000000" stroke-miterlimit="10" cx="560" cy="272" r="32"/>
	<circle id="grab" fill="#A85FFF" stroke="#000000" stroke-miterlimit="10" cx="672" cy="96" r="32"/>
	<circle id="star" fill="#FFAD1D" cx="592" cy="496" r="32"/>
	<circle id="star_1_" fill="#FFAD1D" cx="160" cy="96" r="32"/>
	<circle id="grab_5_" fill="#A85FFF" stroke="#000000" stroke-miterlimit="10" cx="544" cy="-96" r="32"/>
	<circle id="grab_6_" fill="#A85FFF" stroke="#000000" stroke-miterlimit="10" cx="480" cy="-288" r="32"/>
	<circle id="grab_7_" fill="#A85FFF" stroke="#000000" stroke-miterlimit="10" cx="352" cy="32" r="32"/>
	<circle id="grab_8_" fill="#A85FFF" stroke="#000000" stroke-miterlimit="10" cx="288" cy="-416" r="32"/>
	<circle id="grab_9_" fill="#A85FFF" stroke="#000000" stroke-miterlimit="10" cx="224" cy="-608" r="32"/>
	<circle id="grab_10_" fill="#A85FFF" stroke="#000000" stroke-miterlimit="10" cx="416" cy="-672" r="32"/>
	<circle id="grab_11_" fill="#A85FFF" stroke="#000000" stroke-miterlimit="10" cx="608" cy="-608" r="32"/>
	<circle id="grab_12_" fill="#A85FFF" stroke="#000000" stroke-miterlimit="10" cx="672" cy="-864" r="32"/>
	<circle id="grab_13_" fill="#A85FFF" stroke="#000000" stroke-miterlimit="10" cx="480" cy="-992" r="32"/>
	<circle id="grab_14_" fill="#A85FFF" stroke="#000000" stroke-miterlimit="10" cx="224" cy="-992" r="32"/>
	<circle id="grab_15_" fill="#A85FFF" stroke="#000000" stroke-miterlimit="10" cx="352" cy="-1184" r="32"/>
	<circle id="grab_16_" fill="#A85FFF" stroke="#000000" stroke-miterlimit="10" cx="288" cy="-1376" r="32"/>
	<circle id="grab_17_" fill="#A85FFF" stroke="#000000" stroke-miterlimit="10" cx="672" cy="-1248" r="32"/>
	<circle id="star_2_" fill="#FFAD1D" cx="544" cy="-480" r="32"/>
	<circle id="star_3_" fill="#FFAD1D" cx="96" cy="-1184" r="32"/>
</g>
</svg>
