<?xml version="1.0" encoding="utf-8"?>
<!-- Generator: Adobe Illustrator 15.0.2, SVG Export Plug-In . SVG Version: 6.00 Build 0)  -->
<!DOCTYPE svg PUBLIC "-//W3C//DTD SVG 1.1//EN" "http://www.w3.org/Graphics/SVG/1.1/DTD/svg11.dtd">
<svg version="1.1" id="Layer_1" xmlns="http://www.w3.org/2000/svg" xmlns:xlink="http://www.w3.org/1999/xlink" x="0px" y="0px"
	 width="768px" height="1024px" viewBox="0 0 768 1024" enable-background="new 0 0 768 1024" xml:space="preserve">
<g id="wall_1_">
	
		<rect id="wall" x="-0.5" y="-847.494" opacity="0.5" fill="#C8C8C8" enable-background="new    " width="768.5" height="1871.494"/>
</g>
<circle id="star_1_" fill="#F8C741" cx="384.5" cy="576.5" r="32"/>
<circle id="grab_2_" fill="#3C7CE6" cx="416.5" cy="800.5" r="32"/>
<circle id="grab_1_" fill="#3C7CE6" cx="608.5" cy="672.5" r="32"/>
<circle id="grab_3_" fill="#3C7CE6" cx="416.5" cy="288.5" r="32"/>
<circle id="grab_4_" fill="#3C7CE6" cx="672.5" cy="416.5" r="32"/>
<circle id="grab_5_" fill="#3C7CE6" cx="480.5" cy="-95.5" r="32"/>
<circle id="grab_6_" fill="#3C7CE6" cx="224.5" cy="96.5" r="32"/>
<circle id="grab_7_" fill="#3C7CE6" cx="672.5" cy="-479.5" r="32"/>
<circle id="grab_8_" fill="#3C7CE6" cx="608.5" cy="96.5" r="32"/>
<circle id="star_2_" fill="#F8C741" cx="32.5" cy="96.5" r="32"/>
<circle id="star_3_" fill="#F8C741" cx="736.5" cy="-223.5" r="32"/>
<circle id="star_4_" fill="#F8C741" cx="96.5" cy="96.5" r="32"/>
<circle id="star_5_" fill="#F8C741" cx="672.5" cy="-159.5" r="32"/>
<circle id="star_6_" fill="#F8C741" cx="672.5" cy="288.5" r="32"/>
<circle id="star_7_" fill="#F8C741" cx="667.05" cy="-607.5" r="32"/>
<circle id="star_8_" fill="#F8C741" cx="160.5" cy="-351.5" r="32"/>
<circle id="star_9_" fill="#F8C741" cx="224.5" cy="-351.5" r="32"/>
<circle id="star_10_" fill="#F8C741" cx="731.05" cy="-607.5" r="32"/>
<circle id="star_11_" fill="#F8C741" cx="736.5" cy="-159.5" r="32"/>
<circle id="grab_9_" fill="#3C7CE6" cx="544.5" cy="-287.5" r="32"/>
<circle id="grab_10_" fill="#3C7CE6" cx="480.5" cy="-671.5" r="32"/>
<circle id="grab_11_" fill="#3C7CE6" cx="288.5" cy="-351.5" r="32"/>
<circle id="star_12_" fill="#F8C741" cx="347.05" cy="-756.5" r="32"/>
<circle id="star_13_" fill="#F8C741" cx="283.05" cy="-756.5" r="32"/>
<circle id="star_14_" fill="#F8C741" cx="731.05" cy="-671.5" r="32"/>
<circle id="grab_12_" fill="#3C7CE6" cx="32.5" cy="-671.5" r="32"/>
<circle id="grab_13_" fill="#3C7CE6" cx="64.5" cy="288.5" r="32"/>
<circle id="grab_14_" fill="#3C7CE6" cx="64.5" cy="608.5" r="32"/>
<circle id="grab_15_" fill="#3C7CE6" cx="160.5" cy="-223.5" r="32"/>
</svg>
