<?xml version="1.0" encoding="utf-8"?>
<!-- Generator: Adobe Illustrator 15.0.2, SVG Export Plug-In . SVG Version: 6.00 Build 0)  -->
<!DOCTYPE svg PUBLIC "-//W3C//DTD SVG 1.1//EN" "http://www.w3.org/Graphics/SVG/1.1/DTD/svg11.dtd">
<svg version="1.1" id="Layer_1" xmlns="http://www.w3.org/2000/svg" xmlns:xlink="http://www.w3.org/1999/xlink" x="0px" y="0px"
	 width="768px" height="1024px" viewBox="0 0 768 1024" enable-background="new 0 0 768 1024" xml:space="preserve">
<rect id="wall" x="-0.5" y="-1381.5" fill="#C8C8C8" width="768.5" height="2399.5"/>
<circle id="grab_1_" fill="#3C7CE6" stroke="#000000" stroke-miterlimit="10" cx="384.5" cy="800.5" r="32"/>
<circle id="star_3_" fill="#F8C741" cx="416.5" cy="16.5" r="32"/>
<circle id="grab_2_" fill="#3C7CE6" stroke="#000000" stroke-miterlimit="10" cx="288.5" cy="608.5" r="32"/>
<circle id="grab_3_" fill="#3C7CE6" stroke="#000000" stroke-miterlimit="10" cx="384.5" cy="416.5" r="32"/>
<circle id="star_1_" fill="#F8C741" cx="96.5" cy="-671.5" r="32"/>
<circle id="star_2_" fill="#F8C741" cx="544.5" cy="544.5" r="32"/>
<circle id="grab_4_" fill="#3C7CE6" stroke="#000000" stroke-miterlimit="10" cx="256.5" cy="-287.5" r="32"/>
<circle id="grab_6_" fill="#3C7CE6" stroke="#000000" stroke-miterlimit="10" cx="416.5" cy="-95.5" r="32"/>
<circle id="grab_7_" fill="#3C7CE6" stroke="#000000" stroke-miterlimit="10" cx="640.5" cy="352.5" r="32"/>
<circle id="grab_11_" fill="#3C7CE6" stroke="#000000" stroke-miterlimit="10" cx="254.5" cy="32" r="32"/>
<circle id="grab_13_" fill="#3C7CE6" stroke="#000000" stroke-miterlimit="10" cx="480.5" cy="160.5" r="32"/>
<circle id="star_4_" fill="#F8C741" cx="416.5" cy="-287.5" r="32"/>
<circle id="star_5_" fill="#F8C741" cx="480.508" cy="288.508" r="32"/>
<circle id="star_6_" fill="#F8C741" cx="448.5" cy="-351.5" r="32"/>
<circle id="grab_15_" fill="#3C7CE6" stroke="#000000" stroke-miterlimit="10" cx="128.5" cy="-495.5" r="32"/>
<circle id="star_7_" fill="#F8C741" cx="128.5" cy="-607.5" r="32"/>
<circle id="star_8_" fill="#F8C741" cx="480.5" cy="-287.5" r="32"/>
<circle id="star_9_" fill="#F8C741" cx="64.5" cy="-607.5" r="32"/>
<circle id="star_10_" fill="#F8C741" cx="544.5" cy="-927.5" r="32"/>
<circle id="star_11_" fill="#F8C741" cx="224.5" cy="-1247.5" r="32"/>
<circle id="grab_17_" fill="#3C7CE6" stroke="#000000" stroke-miterlimit="10" cx="544.5" cy="-671.5" r="32"/>
<circle id="grab_18_" fill="#3C7CE6" stroke="#000000" stroke-miterlimit="10" cx="160.5" cy="-1119.5" r="32"/>
<circle id="grab_19_" fill="#3C7CE6" stroke="#000000" stroke-miterlimit="10" cx="352.5" cy="-607.5" r="32"/>
<circle id="grab_21_" fill="#3C7CE6" stroke="#000000" stroke-miterlimit="10" cx="672.5" cy="-863.5" r="32"/>
<circle id="grab_22_" fill="#3C7CE6" stroke="#000000" stroke-miterlimit="10" cx="384.5" cy="-1183.5" r="32"/>
<circle id="star_12_" fill="#F8C741" cx="512.5" cy="-991.5" r="32"/>
<circle id="star_13_" fill="#F8C741" cx="256.5" cy="-1311.5" r="32"/>
<circle id="star_14_" fill="#F8C741" cx="480.5" cy="-927.5" r="32"/>
<circle id="grab_24_" fill="#3C7CE6" stroke="#000000" stroke-miterlimit="10" cx="288.5" cy="-927.5" r="32"/>
<circle id="grab_25_" fill="#3C7CE6" stroke="#000000" stroke-miterlimit="10" cx="576.5" cy="-1055.5" r="32"/>
<circle id="star_15_" fill="#F8C741" cx="304.5" cy="-1247.5" r="32"/>
</svg>
