<?xml version="1.0" encoding="utf-8"?>
<!-- Generator: Adobe Illustrator 15.0.2, SVG Export Plug-In . SVG Version: 6.00 Build 0)  -->
<!DOCTYPE svg PUBLIC "-//W3C//DTD SVG 1.1//EN" "http://www.w3.org/Graphics/SVG/1.1/DTD/svg11.dtd">
<svg version="1.1" id="Layer_1" xmlns="http://www.w3.org/2000/svg" xmlns:xlink="http://www.w3.org/1999/xlink" x="0px" y="0px"
	 width="768px" height="1024px" viewBox="0 0 768 1024" enable-background="new 0 0 768 1024" xml:space="preserve">
<g id="wall_1_">
	
		<rect id="wall" x="-0.5" y="-831.499" opacity="0.5" fill="#C8C8C8" enable-background="new    " width="768.5" height="1855.499"/>
</g>
<circle id="grab_2_" fill="#3C7CE6" cx="608.5" cy="672.5" r="32"/>
<circle id="grab_1_" fill="#3C7CE6" cx="288.5" cy="864.5" r="32"/>
<circle id="grab_3_" fill="#3C7CE6" cx="123.05" cy="480.5" r="32"/>
<circle id="grab_4_" fill="#3C7CE6" cx="480.5" cy="864.5" r="32"/>
<circle id="grab_5_" fill="#3C7CE6" cx="635.05" cy="288.5" r="32"/>
<circle id="grab_6_" fill="#3C7CE6" cx="635.05" cy="480.5" r="32"/>
<circle id="grab_7_" fill="#3C7CE6" cx="635.05" cy="-287.5" r="32"/>
<circle id="grab_8_" fill="#3C7CE6" cx="635.05" cy="96.5" r="32"/>
<circle id="star_2_" fill="#F8C741" cx="539.05" cy="672.5" r="32"/>
<circle id="star_3_" fill="#F8C741" cx="379.05" cy="-95.5" r="32"/>
<circle id="star_4_" fill="#F8C741" cx="219.05" cy="672.5" r="32"/>
<circle id="star_7_" fill="#F8C741" cx="571.05" cy="-95.5" r="32"/>
<circle id="star_8_" fill="#F8C741" cx="187.05" cy="288.5" r="32"/>
<circle id="star_9_" fill="#F8C741" cx="571.05" cy="288.5" r="32"/>
<circle id="star_10_" fill="#F8C741" cx="187.05" cy="-95.5" r="32"/>
<circle id="grab_9_" fill="#3C7CE6" cx="635.05" cy="-95.5" r="32"/>
<circle id="grab_10_" fill="#3C7CE6" cx="635.05" cy="-479.5" r="32"/>
<circle id="grab_11_" fill="#3C7CE6" cx="123.05" cy="-95.5" r="32"/>
<circle id="star_12_" fill="#F8C741" cx="379.05" cy="288.5" r="32"/>
<circle id="star_13_" fill="#F8C741" cx="379.05" cy="480.5" r="32"/>
<circle id="star_14_" fill="#F8C741" cx="379.05" cy="96.5" r="32"/>
<circle id="grab_12_" fill="#3C7CE6" cx="123.05" cy="-287.5" r="32"/>
<circle id="grab_13_" fill="#3C7CE6" cx="123.05" cy="288.5" r="32"/>
<circle id="grab_14_" fill="#3C7CE6" cx="160.5" cy="672.5" r="32"/>
<circle id="grab_15_" fill="#3C7CE6" cx="123.05" cy="96.5" r="32"/>
<circle id="star_15_" fill="#F8C741" cx="379.05" cy="-735.5" r="32"/>
<circle id="star_16_" fill="#F8C741" cx="379.05" cy="-479.5" r="32"/>
<circle id="star_17_" fill="#F8C741" cx="379.05" cy="-671.5" r="32"/>
<circle id="star_18_" fill="#F8C741" cx="379.05" cy="-287.5" r="32"/>
<circle id="grab_16_" fill="#3C7CE6" cx="123.05" cy="-479.5" r="32"/>
<circle id="grab_17_" fill="#3C7CE6" cx="475.05" cy="-671.5" r="32"/>
<circle id="grab_18_" fill="#3C7CE6" cx="283.05" cy="-671.5" r="32"/>
<circle id="grab_19_" fill="#3C7CE6" cx="379.05" cy="544.5" r="32"/>
<circle id="grab_20_" fill="#3C7CE6" cx="379.05" cy="192.5" r="32"/>
<circle id="grab_21_" fill="#3C7CE6" cx="379.05" cy="-159.5" r="32"/>
<circle id="grab_22_" fill="#3C7CE6" cx="379.05" cy="-383.5" r="32"/>
</svg>
